<svg xmlns="http://www.w3.org/2000/svg" id="museum" width="16" height="16" viewBox="0 0 20 20"><g><path d="M0,0 H20 V20 H0 Z" fill="none"/><path d="M5.5,1H14.5c2.485,0,4.5,2.015,4.5,4.5V14.5c0,2.485-2.015,4.5-4.5,4.5H5.5c-2.485,0-4.5-2.015-4.5-4.5V5.5C1,3.015,3.015,1,5.5,1Z" fill="hsl(352, 83%, 60%)" stroke="hsl(60, 0%, 100%)" stroke-linejoin="round" stroke-miterlimit="4px" stroke-width="1.2"/><path d="M10 4L4.800000000000001 6.800000000000001V7.200000000000001h10.4v-0.4L10 4zM5.6 8v4l-0.8 1.2800000000000002V14.4h10.4v-1.1199999999999999L14.4 12V8H5.6z m1.6 0.8h0.8v4.4H7.200000000000001V8.8z m2.4000000000000004 0h0.8v4.4H9.6V8.8z m2.4000000000000004 0h0.8v4.4h-0.8V8.8z" fill="hsl(60, 0%, 100%)"/></g></svg>