<svg xmlns="http://www.w3.org/2000/svg" id="restaurant" width="16" height="16" viewBox="0 0 20 20"><g><path d="M0,0 H20 V20 H0 Z" fill="none"/><path d="M5.5,1H14.5c2.485,0,4.5,2.015,4.5,4.5V14.5c0,2.485-2.015,4.5-4.5,4.5H5.5c-2.485,0-4.5-2.015-4.5-4.5V5.5C1,3.015,3.015,1,5.5,1Z" fill="hsl(36, 89%, 60%)" stroke="hsl(60, 0%, 100%)" stroke-linejoin="round" stroke-miterlimit="4px" stroke-width="1.2"/><path d="M6.800000000000001 4l-0.8 4.4c-0.1168 0.6440000000000001 1.4256000000000002 0.9448000000000001 1.4000000000000001 1.6L7.200000000000001 15.200000000000001c-0.0304 0.8 0.8 0.8 0.8 0.8s0.8304 0 0.8-0.8l-0.2-5.2c-0.024800000000000003-0.6544 1.3864-0.944 1.4000000000000001-1.6L9.200000000000001 4H8.8l0.2 3.2-0.6000000000000001 0.4L8.200000000000001 4h-0.4L7.6 7.6 7 7.200000000000001 7.200000000000001 4h-0.4zM13.6 4c-0.5888 0-1.5712000000000002 0.524-1.9640000000000002 1.3096C11.308 5.8984000000000005 11.200000000000001 7.2143999999999995 11.200000000000001 8v2c0 0.6544 0.8720000000000001 0.8 1.2000000000000002 0.8L12 15.200000000000001c-0.072 0.7968000000000001 0.8 0.8 0.8 0.8s0.8 0 0.8-0.8V4z" fill="hsl(60, 0%, 100%)"/></g></svg>